<svg xmlns="http://www.w3.org/2000/svg" xmlns:xlink="http://www.w3.org/1999/xlink" contentStyleType="text/css" data-diagram-type="CLASS" height="406px" preserveAspectRatio="none" style="width:1458px;height:406px;background:#FFFFFF;" version="1.1" viewBox="0 0 1458 406" width="1458px" zoomAndPan="magnify"><?plantuml 1.2026.3beta6?><defs/><g><!--class experience_packages--><g class="entity" data-qualified-name="experience_packages" data-source-line="3" id="ent0002"><rect fill="#F1F1F1" height="96.8906" rx="2.5" ry="2.5" style="stroke:#181818;stroke-width:0.5;" width="183.4844" x="292.43" y="23.3"/><ellipse cx="307.43" cy="39.3" fill="#ADD1B2" rx="11" ry="11" style="stroke:#181818;stroke-width:1;"/><path d="M311.5394,45.3 L303.8206,45.3 L303.8206,32.9094 L311.5394,32.9094 L311.5394,35.0656 L306.2738,35.0656 L306.2738,37.7375 L311.0394,37.7375 L311.0394,39.8938 L306.2738,39.8938 L306.2738,43.1438 L311.5394,43.1438 L311.5394,45.3 Z " fill="#000000"/><text fill="#000000" font-family="sans-serif" font-size="14" lengthAdjust="spacing" textLength="151.4844" x="321.43" y="44.1467">experience_packages</text><line style="stroke:#181818;stroke-width:0.5;" x1="293.43" x2="474.9144" y1="55.3" y2="55.3"/><g data-visibility-modifier="IE_MANDATORY"><ellipse cx="303.43" cy="68.9484" fill="#000000" rx="3" ry="3" style="stroke:#000000;stroke-width:1;"/></g><text fill="#000000" font-family="sans-serif" font-size="14" lengthAdjust="spacing" textLength="12.7764" x="312.43" y="72.2951">id</text><line style="stroke:#181818;stroke-width:1;" x1="293.43" x2="474.9144" y1="79.5969" y2="79.5969"/><text fill="#000000" font-family="sans-serif" font-size="14" lengthAdjust="spacing" textLength="39.7031" x="298.43" y="96.592">name</text><text fill="#000000" font-family="sans-serif" font-size="14" lengthAdjust="spacing" textLength="90.0293" x="298.43" y="112.8889">day_of_week</text></g><!--class experience_add_ons--><g class="entity" data-qualified-name="experience_add_ons" data-source-line="10" id="ent0003"><rect fill="#F1F1F1" height="113.1875" rx="2.5" ry="2.5" style="stroke:#181818;stroke-width:0.5;" width="174.9258" x="540.71" y="15.15"/><ellipse cx="555.71" cy="31.15" fill="#ADD1B2" rx="11" ry="11" style="stroke:#181818;stroke-width:1;"/><path d="M559.8194,37.15 L552.1006,37.15 L552.1006,24.7594 L559.8194,24.7594 L559.8194,26.9156 L554.5538,26.9156 L554.5538,29.5875 L559.3194,29.5875 L559.3194,31.7438 L554.5538,31.7438 L554.5538,34.9938 L559.8194,34.9938 L559.8194,37.15 Z " fill="#000000"/><text fill="#000000" font-family="sans-serif" font-size="14" lengthAdjust="spacing" textLength="142.9258" x="569.71" y="35.9967">experience_add_ons</text><line style="stroke:#181818;stroke-width:0.5;" x1="541.71" x2="714.6358" y1="47.15" y2="47.15"/><g data-visibility-modifier="IE_MANDATORY"><ellipse cx="551.71" cy="60.7984" fill="#000000" rx="3" ry="3" style="stroke:#000000;stroke-width:1;"/></g><text fill="#000000" font-family="sans-serif" font-size="14" lengthAdjust="spacing" textLength="12.7764" x="560.71" y="64.1451">id</text><line style="stroke:#181818;stroke-width:1;" x1="541.71" x2="714.6358" y1="71.4469" y2="71.4469"/><text fill="#000000" font-family="sans-serif" font-size="14" lengthAdjust="spacing" textLength="39.7031" x="546.71" y="88.442">name</text><text fill="#000000" font-family="sans-serif" font-size="14" lengthAdjust="spacing" textLength="77.8408" x="546.71" y="104.7389">description</text><text fill="#000000" font-family="sans-serif" font-size="14" lengthAdjust="spacing" textLength="34.8428" x="546.71" y="121.0357">price</text></g><!--class experience_package_time_slots--><g class="entity" data-qualified-name="experience_package_time_slots" data-source-line="18" id="ent0004"><rect fill="#F1F1F1" height="113.1875" rx="2.5" ry="2.5" style="stroke:#181818;stroke-width:0.5;" width="254.3525" x="7" y="237.23"/><ellipse cx="22" cy="253.23" fill="#ADD1B2" rx="11" ry="11" style="stroke:#181818;stroke-width:1;"/><path d="M26.1094,259.23 L18.3906,259.23 L18.3906,246.8394 L26.1094,246.8394 L26.1094,248.9956 L20.8438,248.9956 L20.8438,251.6675 L25.6094,251.6675 L25.6094,253.8238 L20.8438,253.8238 L20.8438,257.0738 L26.1094,257.0738 L26.1094,259.23 Z " fill="#000000"/><text fill="#000000" font-family="sans-serif" font-size="14" lengthAdjust="spacing" textLength="222.3525" x="36" y="258.0767">experience_package_time_slots</text><line style="stroke:#181818;stroke-width:0.5;" x1="8" x2="260.3525" y1="269.23" y2="269.23"/><g data-visibility-modifier="IE_MANDATORY"><ellipse cx="18" cy="282.8784" fill="#000000" rx="3" ry="3" style="stroke:#000000;stroke-width:1;"/></g><text fill="#000000" font-family="sans-serif" font-size="14" lengthAdjust="spacing" textLength="12.7764" x="27" y="286.2251">id</text><line style="stroke:#181818;stroke-width:1;" x1="8" x2="260.3525" y1="293.5269" y2="293.5269"/><text fill="#000000" font-family="sans-serif" font-size="14" lengthAdjust="spacing" textLength="163.9668" x="13" y="310.522">experience_package_id</text><text fill="#000000" font-family="sans-serif" font-size="14" lengthAdjust="spacing" textLength="31.6299" x="13" y="326.8189">time</text><text fill="#000000" font-family="sans-serif" font-size="14" lengthAdjust="spacing" textLength="59.1035" x="13" y="343.1157">capacity</text></g><!--class experience_package_exception_rules--><g class="entity" data-qualified-name="experience_package_exception_rules" data-source-line="26" id="ent0005"><rect fill="#F1F1F1" height="129.4844" rx="2.5" ry="2.5" style="stroke:#181818;stroke-width:0.5;" width="293.5293" x="802.41" y="7"/><ellipse cx="817.41" cy="23" fill="#ADD1B2" rx="11" ry="11" style="stroke:#181818;stroke-width:1;"/><path d="M821.5194,29 L813.8006,29 L813.8006,16.6094 L821.5194,16.6094 L821.5194,18.7656 L816.2538,18.7656 L816.2538,21.4375 L821.0194,21.4375 L821.0194,23.5938 L816.2538,23.5938 L816.2538,26.8438 L821.5194,26.8438 L821.5194,29 Z " fill="#000000"/><text fill="#000000" font-family="sans-serif" font-size="14" lengthAdjust="spacing" textLength="261.5293" x="831.41" y="27.8467">experience_package_exception_rules</text><line style="stroke:#181818;stroke-width:0.5;" x1="803.41" x2="1094.9393" y1="39" y2="39"/><g data-visibility-modifier="IE_MANDATORY"><ellipse cx="813.41" cy="52.6484" fill="#000000" rx="3" ry="3" style="stroke:#000000;stroke-width:1;"/></g><text fill="#000000" font-family="sans-serif" font-size="14" lengthAdjust="spacing" textLength="12.7764" x="822.41" y="55.9951">id</text><line style="stroke:#181818;stroke-width:1;" x1="803.41" x2="1094.9393" y1="63.2969" y2="63.2969"/><text fill="#000000" font-family="sans-serif" font-size="14" lengthAdjust="spacing" textLength="163.9668" x="808.41" y="80.292">experience_package_id</text><text fill="#000000" font-family="sans-serif" font-size="14" lengthAdjust="spacing" textLength="39.7031" x="808.41" y="96.5889">name</text><text fill="#000000" font-family="sans-serif" font-size="14" lengthAdjust="spacing" textLength="109.7168" x="808.41" y="112.8857">week_of_month</text><text fill="#000000" font-family="sans-serif" font-size="14" lengthAdjust="spacing" textLength="90.0293" x="808.41" y="129.1826">day_of_week</text></g><!--class experience_package_exception_time_slots--><g class="entity" data-qualified-name="experience_package_exception_time_slots" data-source-line="35" id="ent0006"><rect fill="#F1F1F1" height="113.1875" rx="2.5" ry="2.5" style="stroke:#181818;stroke-width:0.5;" width="330.2656" x="784.04" y="237.23"/><ellipse cx="799.04" cy="253.23" fill="#ADD1B2" rx="11" ry="11" style="stroke:#181818;stroke-width:1;"/><path d="M803.1494,259.23 L795.4306,259.23 L795.4306,246.8394 L803.1494,246.8394 L803.1494,248.9956 L797.8838,248.9956 L797.8838,251.6675 L802.6494,251.6675 L802.6494,253.8238 L797.8838,253.8238 L797.8838,257.0738 L803.1494,257.0738 L803.1494,259.23 Z " fill="#000000"/><text fill="#000000" font-family="sans-serif" font-size="14" lengthAdjust="spacing" textLength="298.2656" x="813.04" y="258.0767">experience_package_exception_time_slots</text><line style="stroke:#181818;stroke-width:0.5;" x1="785.04" x2="1113.3056" y1="269.23" y2="269.23"/><g data-visibility-modifier="IE_MANDATORY"><ellipse cx="795.04" cy="282.8784" fill="#000000" rx="3" ry="3" style="stroke:#000000;stroke-width:1;"/></g><text fill="#000000" font-family="sans-serif" font-size="14" lengthAdjust="spacing" textLength="12.7764" x="804.04" y="286.2251">id</text><line style="stroke:#181818;stroke-width:1;" x1="785.04" x2="1113.3056" y1="293.5269" y2="293.5269"/><text fill="#000000" font-family="sans-serif" font-size="14" lengthAdjust="spacing" textLength="122.8213" x="790.04" y="310.522">exception_rule_id</text><text fill="#000000" font-family="sans-serif" font-size="14" lengthAdjust="spacing" textLength="31.6299" x="790.04" y="326.8189">time</text><text fill="#000000" font-family="sans-serif" font-size="14" lengthAdjust="spacing" textLength="59.1035" x="790.04" y="343.1157">capacity</text></g><!--class experience_package_add_ons--><g class="entity" data-qualified-name="experience_package_add_ons" data-source-line="43" id="ent0007"><rect fill="#F1F1F1" height="80.5938" rx="2.5" ry="2.5" style="stroke:#181818;stroke-width:0.5;" width="241.2754" x="507.54" y="253.53"/><ellipse cx="522.54" cy="269.53" fill="#ADD1B2" rx="11" ry="11" style="stroke:#181818;stroke-width:1;"/><path d="M526.6494,275.53 L518.9306,275.53 L518.9306,263.1394 L526.6494,263.1394 L526.6494,265.2956 L521.3838,265.2956 L521.3838,267.9675 L526.1494,267.9675 L526.1494,270.1238 L521.3838,270.1238 L521.3838,273.3738 L526.6494,273.3738 L526.6494,275.53 Z " fill="#000000"/><text fill="#000000" font-family="sans-serif" font-size="14" lengthAdjust="spacing" textLength="209.2754" x="536.54" y="274.3767">experience_package_add_ons</text><line style="stroke:#181818;stroke-width:0.5;" x1="508.54" x2="747.8154" y1="285.53" y2="285.53"/><g data-visibility-modifier="IE_MANDATORY"><ellipse cx="518.54" cy="299.1784" fill="#000000" rx="3" ry="3" style="stroke:#000000;stroke-width:1;"/></g><text fill="#000000" font-family="sans-serif" font-size="14" lengthAdjust="spacing" textLength="163.9668" x="527.54" y="302.5251">experience_package_id</text><g data-visibility-modifier="IE_MANDATORY"><ellipse cx="518.54" cy="315.4753" fill="#000000" rx="3" ry="3" style="stroke:#000000;stroke-width:1;"/></g><text fill="#000000" font-family="sans-serif" font-size="14" lengthAdjust="spacing" textLength="155.4082" x="527.54" y="318.822">experience_add_on_id</text><line style="stroke:#181818;stroke-width:0.5;" x1="508.54" x2="747.8154" y1="326.1238" y2="326.1238"/></g><!--class experience_packages_relations_dummy--><g class="entity" data-qualified-name="experience_packages_relations_dummy" data-source-line="48" id="ent0008"><rect fill="#F1F1F1" height="48" rx="2.5" ry="2.5" style="stroke:#181818;stroke-width:0.5;" width="311.7539" x="1131.3" y="47.75"/><ellipse cx="1146.3" cy="63.75" fill="#ADD1B2" rx="11" ry="11" style="stroke:#181818;stroke-width:1;"/><path d="M1150.4094,69.75 L1142.6906,69.75 L1142.6906,57.3594 L1150.4094,57.3594 L1150.4094,59.5156 L1145.1438,59.5156 L1145.1438,62.1875 L1149.9094,62.1875 L1149.9094,64.3438 L1145.1438,64.3438 L1145.1438,67.5938 L1150.4094,67.5938 L1150.4094,69.75 Z " fill="#000000"/><text fill="#000000" font-family="sans-serif" font-size="14" lengthAdjust="spacing" textLength="279.7539" x="1160.3" y="68.5967">experience_packages_relations_dummy</text><line style="stroke:#181818;stroke-width:0.5;" x1="1132.3" x2="1442.0539" y1="79.75" y2="79.75"/><line style="stroke:#181818;stroke-width:0.5;" x1="1132.3" x2="1442.0539" y1="87.75" y2="87.75"/></g><!--class appointments--><g class="entity" data-qualified-name="appointments" data-source-line="51" id="ent0009"><rect fill="#F1F1F1" height="194.6719" rx="2.5" ry="2.5" style="stroke:#181818;stroke-width:0.5;" width="175.9668" x="296.19" y="196.49"/><ellipse cx="332.2903" cy="212.49" fill="#ADD1B2" rx="11" ry="11" style="stroke:#181818;stroke-width:1;"/><path d="M336.3997,218.49 L328.681,218.49 L328.681,206.0994 L336.3997,206.0994 L336.3997,208.2556 L331.1341,208.2556 L331.1341,210.9275 L335.8997,210.9275 L335.8997,213.0838 L331.1341,213.0838 L331.1341,216.3338 L336.3997,216.3338 L336.3997,218.49 Z " fill="#000000"/><text fill="#000000" font-family="sans-serif" font-size="14" lengthAdjust="spacing" textLength="97.0771" x="350.9793" y="217.3367">appointments</text><line style="stroke:#181818;stroke-width:0.5;" x1="297.19" x2="471.1568" y1="228.49" y2="228.49"/><g data-visibility-modifier="IE_MANDATORY"><ellipse cx="307.19" cy="242.1384" fill="#000000" rx="3" ry="3" style="stroke:#000000;stroke-width:1;"/></g><text fill="#000000" font-family="sans-serif" font-size="14" lengthAdjust="spacing" textLength="12.7764" x="316.19" y="245.4851">id</text><line style="stroke:#181818;stroke-width:1;" x1="297.19" x2="471.1568" y1="252.7869" y2="252.7869"/><text fill="#000000" font-family="sans-serif" font-size="14" lengthAdjust="spacing" textLength="163.9668" x="302.19" y="269.782">experience_package_id</text><text fill="#000000" font-family="sans-serif" font-size="14" lengthAdjust="spacing" textLength="128.3516" x="302.19" y="286.0789">appointment_date</text><text fill="#000000" font-family="sans-serif" font-size="14" lengthAdjust="spacing" textLength="31.6299" x="302.19" y="302.3757">time</text><text fill="#000000" font-family="sans-serif" font-size="14" lengthAdjust="spacing" textLength="27.2549" x="302.19" y="318.6726">kwc</text><text fill="#000000" font-family="sans-serif" font-size="14" lengthAdjust="spacing" textLength="112.6289" x="302.19" y="334.9695">customer_name</text><text fill="#000000" font-family="sans-serif" font-size="14" lengthAdjust="spacing" textLength="111.5352" x="302.19" y="351.2664">customer_email</text><text fill="#000000" font-family="sans-serif" font-size="14" lengthAdjust="spacing" textLength="116.7373" x="302.19" y="367.5632">customer_phone</text><text fill="#000000" font-family="sans-serif" font-size="14" lengthAdjust="spacing" textLength="74.7031" x="302.19" y="383.8601">created_at</text></g><!--link experience_packages to experience_package_time_slots--><g class="link" data-entity-1="ent0002" data-entity-2="ent0004" data-link-type="crowfoot" data-source-line="64" id="lnk10"><path codeLine="64" d="M284.15,72.16 C212.87,72.16 134.18,72.16 134.18,72.16 C134.18,72.16 134.18,153.06 134.18,218.74" fill="none" id="experience_packages-experience_package_time_slots" style="stroke:#181818;stroke-width:1;"/><line style="stroke:#181818;stroke-width:1;" x1="288.15" x2="288.15" y1="68.16" y2="76.16"/><line style="stroke:#181818;stroke-width:1;" x1="285.15" x2="285.15" y1="68.16" y2="76.16"/><line style="stroke:#181818;stroke-width:1;" x1="284.15" x2="292.15" y1="72.16" y2="72.16"/><line style="stroke:#181818;stroke-width:1;" x1="134.18" x2="140.18" y1="228.74" y2="236.74"/><line style="stroke:#181818;stroke-width:1;" x1="134.18" x2="128.18" y1="228.74" y2="236.74"/><line style="stroke:#181818;stroke-width:1;" x1="134.18" x2="134.18" y1="228.74" y2="236.74"/><ellipse cx="134.18" cy="222.74" fill="none" rx="4" ry="4" style="stroke:#181818;stroke-width:1;"/><text fill="#000000" font-family="sans-serif" font-size="13" lengthAdjust="spacing" textLength="55.0278" x="78.18" y="71.5269">contains</text></g><!--link experience_package_exception_rules to experience_package_exception_time_slots--><g class="link" data-entity-1="ent0005" data-entity-2="ent0006" data-link-type="crowfoot" data-source-line="65" id="lnk11"><path codeLine="65" d="M949.18,144.88 C949.18,176.62 949.18,188.43 949.18,218.99" fill="none" id="experience_package_exception_rules-experience_package_exception_time_slots" style="stroke:#181818;stroke-width:1;"/><line style="stroke:#181818;stroke-width:1;" x1="945.18" x2="953.18" y1="140.88" y2="140.88"/><line style="stroke:#181818;stroke-width:1;" x1="945.18" x2="953.18" y1="143.88" y2="143.88"/><line style="stroke:#181818;stroke-width:1;" x1="949.18" x2="949.18" y1="144.88" y2="136.88"/><line style="stroke:#181818;stroke-width:1;" x1="949.18" x2="955.18" y1="228.99" y2="236.99"/><line style="stroke:#181818;stroke-width:1;" x1="949.18" x2="943.18" y1="228.99" y2="236.99"/><line style="stroke:#181818;stroke-width:1;" x1="949.18" x2="949.18" y1="228.99" y2="236.99"/><ellipse cx="949.18" cy="222.99" fill="none" rx="4" ry="4" style="stroke:#181818;stroke-width:1;"/><text fill="#000000" font-family="sans-serif" font-size="13" lengthAdjust="spacing" textLength="55.0278" x="893.18" y="182.9969">contains</text></g><!--link experience_packages to experience_package_add_ons--><g class="link" data-entity-1="ent0002" data-entity-2="ent0007" data-link-type="crowfoot" data-source-line="66" id="lnk12"><path codeLine="66" d="M484.35,72.16 C510.56,72.16 524.13,72.16 524.13,72.16 C524.13,72.16 524.13,171.17 524.13,235.17" fill="none" id="experience_packages-experience_package_add_ons" style="stroke:#181818;stroke-width:1;"/><line style="stroke:#181818;stroke-width:1;" x1="480.35" x2="480.35" y1="76.16" y2="68.16"/><line style="stroke:#181818;stroke-width:1;" x1="483.35" x2="483.35" y1="76.16" y2="68.16"/><line style="stroke:#181818;stroke-width:1;" x1="484.35" x2="476.35" y1="72.16" y2="72.16"/><line style="stroke:#181818;stroke-width:1;" x1="524.13" x2="530.13" y1="245.17" y2="253.17"/><line style="stroke:#181818;stroke-width:1;" x1="524.13" x2="518.13" y1="245.17" y2="253.17"/><line style="stroke:#181818;stroke-width:1;" x1="524.13" x2="524.13" y1="245.17" y2="253.17"/><ellipse cx="524.13" cy="239.17" fill="none" rx="4" ry="4" style="stroke:#181818;stroke-width:1;"/><text fill="#000000" font-family="sans-serif" font-size="13" lengthAdjust="spacing" textLength="55.0278" x="468.13" y="134.8469">contains</text></g><!--link experience_add_ons to experience_package_add_ons--><g class="link" data-entity-1="ent0003" data-entity-2="ent0007" data-link-type="crowfoot" data-source-line="67" id="lnk13"><path codeLine="67" d="M628.18,136.65 C628.18,175.59 628.18,200.29 628.18,235.19" fill="none" id="experience_add_ons-experience_package_add_ons" style="stroke:#181818;stroke-width:1;"/><line style="stroke:#181818;stroke-width:1;" x1="624.18" x2="632.18" y1="132.65" y2="132.65"/><line style="stroke:#181818;stroke-width:1;" x1="624.18" x2="632.18" y1="135.65" y2="135.65"/><line style="stroke:#181818;stroke-width:1;" x1="628.18" x2="628.18" y1="136.65" y2="128.65"/><line style="stroke:#181818;stroke-width:1;" x1="628.18" x2="634.18" y1="245.19" y2="253.19"/><line style="stroke:#181818;stroke-width:1;" x1="628.18" x2="622.18" y1="245.19" y2="253.19"/><line style="stroke:#181818;stroke-width:1;" x1="628.18" x2="628.18" y1="245.19" y2="253.19"/><ellipse cx="628.18" cy="239.19" fill="none" rx="4" ry="4" style="stroke:#181818;stroke-width:1;"/><text fill="#000000" font-family="sans-serif" font-size="13" lengthAdjust="spacing" textLength="55.0278" x="572.18" y="186.9869">contains</text></g><!--link experience_packages to appointments--><g class="link" data-entity-1="ent0002" data-entity-2="ent0009" data-link-type="crowfoot" data-source-line="68" id="lnk14"><path codeLine="68" d="M384.18,128.48 C384.18,150.83 384.18,152.15 384.18,178.43" fill="none" id="experience_packages-appointments" style="stroke:#181818;stroke-width:1;"/><line style="stroke:#181818;stroke-width:1;" x1="380.18" x2="388.18" y1="124.48" y2="124.48"/><line style="stroke:#181818;stroke-width:1;" x1="380.18" x2="388.18" y1="127.48" y2="127.48"/><line style="stroke:#181818;stroke-width:1;" x1="384.18" x2="384.18" y1="128.48" y2="120.48"/><line style="stroke:#181818;stroke-width:1;" x1="384.18" x2="390.18" y1="188.43" y2="196.43"/><line style="stroke:#181818;stroke-width:1;" x1="384.18" x2="378.18" y1="188.43" y2="196.43"/><line style="stroke:#181818;stroke-width:1;" x1="384.18" x2="384.18" y1="188.43" y2="196.43"/><ellipse cx="384.18" cy="182.43" fill="none" rx="4" ry="4" style="stroke:#181818;stroke-width:1;"/><text fill="#000000" font-family="sans-serif" font-size="13" lengthAdjust="spacing" textLength="55.0278" x="328.18" y="154.5269">contains</text></g><?plantuml-src dLBRRiCm27tFL_YvKdvWFuEGpHQK-2ARg8tQ_VliA5tIvRAeBqOOE70uf9PTm8XMTUn8Xa3AHsbyLP4Jba7HBL1aSfeWe6xnYvAwLqfT59jiwZe_3YrbOt00_mbNehRwtW90Oy2x_NfAEd8GzYvx8RAcRPnf412s1AdpieRSo1w3fIGRZVatenxZqqtJE0x4lgFpJIO-PH5b8TOxQSxiPzttaE5ok3VOlQgnn-Mo5h04Zf0JHEgmZ9R0zDOEkSMSZo5uTcApUtwZYo8mA3HpRQ-wCEwJU4iHfjN_-cIHk-L7QBmRCo9b70CeusmRL_vurBM__tDt7qfdTP5TgauSq3xafkI7u4TeJsct0PxHT-l_3l2Yw5po0m00?></g></svg>