<svg xmlns="http://www.w3.org/2000/svg" xmlns:xlink="http://www.w3.org/1999/xlink" contentStyleType="text/css" data-diagram-type="CLASS" height="629px" preserveAspectRatio="none" style="width:2043px;height:629px;background:#FFFFFF;" version="1.1" viewBox="0 0 2043 629" width="2043px" zoomAndPan="magnify"><?plantuml 1.2026.3beta6?><defs/><g><!--class appointments--><g class="entity" data-qualified-name="appointments" data-source-line="1" id="ent0002"><rect fill="#F1F1F1" height="210.9688" rx="2.5" ry="2.5" style="stroke:#181818;stroke-width:0.5;" width="406.5977" x="1621.66" y="197.19"/><ellipse cx="1772.1703" cy="213.19" fill="#ADD1B2" rx="11" ry="11" style="stroke:#181818;stroke-width:1;"/><path d="M1776.2796,219.19 L1768.5609,219.19 L1768.5609,206.7994 L1776.2796,206.7994 L1776.2796,208.9556 L1771.014,208.9556 L1771.014,211.6275 L1775.7796,211.6275 L1775.7796,213.7838 L1771.014,213.7838 L1771.014,217.0338 L1776.2796,217.0338 L1776.2796,219.19 Z " fill="#000000"/><text fill="#000000" font-family="sans-serif" font-size="14" lengthAdjust="spacing" textLength="97.0771" x="1792.6703" y="218.0367">appointments</text><line style="stroke:#181818;stroke-width:0.5;" x1="1622.66" x2="2027.2577" y1="229.19" y2="229.19"/><g data-visibility-modifier="IE_MANDATORY"><ellipse cx="1632.66" cy="242.8384" fill="#000000" rx="3" ry="3" style="stroke:#000000;stroke-width:1;"/></g><text fill="#000000" font-family="sans-serif" font-size="14" lengthAdjust="spacing" textLength="96.1201" x="1641.66" y="246.1851">id : uuid &#171;PK&#187;</text><g data-visibility-modifier="IE_MANDATORY"><ellipse cx="1632.66" cy="259.1353" fill="#000000" rx="3" ry="3" style="stroke:#000000;stroke-width:1;"/></g><text fill="#000000" font-family="sans-serif" font-size="14" lengthAdjust="spacing" textLength="208.1064" x="1641.66" y="262.482">experience_package_id : uuid</text><text fill="#000000" font-family="sans-serif" font-size="14" lengthAdjust="spacing" textLength="173.5371" x="1641.66" y="278.7789">appointment_date : date</text><text fill="#000000" font-family="sans-serif" font-size="14" lengthAdjust="spacing" textLength="76.877" x="1641.66" y="295.0757">time : time</text><text fill="#000000" font-family="sans-serif" font-size="14" lengthAdjust="spacing" textLength="68.749" x="1641.66" y="311.3726">kwc : text</text><text fill="#000000" font-family="sans-serif" font-size="14" lengthAdjust="spacing" textLength="154.123" x="1641.66" y="327.6695">customer_name : text</text><text fill="#000000" font-family="sans-serif" font-size="14" lengthAdjust="spacing" textLength="153.0293" x="1641.66" y="343.9664">customer_email : text</text><text fill="#000000" font-family="sans-serif" font-size="14" lengthAdjust="spacing" textLength="158.2314" x="1641.66" y="360.2632">customer_phone : text</text><text fill="#000000" font-family="sans-serif" font-size="14" lengthAdjust="spacing" textLength="163.8369" x="1641.66" y="376.5601">created_at : timestamp</text><line style="stroke:#181818;stroke-width:1;" x1="1622.66" x2="2027.2577" y1="383.8619" y2="383.8619"/><text fill="#000000" font-family="sans-serif" font-size="14" lengthAdjust="spacing" textLength="394.5977" x="1627.66" y="400.857">-- FK experience_package_id -&gt; experience_packages.id</text></g><!--class experience_packages--><g class="entity" data-qualified-name="experience_packages" data-source-line="15" id="ent0003"><rect fill="#F1F1F1" height="96.8906" rx="2.5" ry="2.5" style="stroke:#181818;stroke-width:0.5;" width="183.4844" x="1090.22" y="15.15"/><ellipse cx="1105.22" cy="31.15" fill="#ADD1B2" rx="11" ry="11" style="stroke:#181818;stroke-width:1;"/><path d="M1109.3294,37.15 L1101.6106,37.15 L1101.6106,24.7594 L1109.3294,24.7594 L1109.3294,26.9156 L1104.0638,26.9156 L1104.0638,29.5875 L1108.8294,29.5875 L1108.8294,31.7437 L1104.0638,31.7437 L1104.0638,34.9937 L1109.3294,34.9937 L1109.3294,37.15 Z " fill="#000000"/><text fill="#000000" font-family="sans-serif" font-size="14" lengthAdjust="spacing" textLength="151.4844" x="1119.22" y="35.9967">experience_packages</text><line style="stroke:#181818;stroke-width:0.5;" x1="1091.22" x2="1272.7044" y1="47.15" y2="47.15"/><g data-visibility-modifier="IE_MANDATORY"><ellipse cx="1101.22" cy="60.7984" fill="#000000" rx="3" ry="3" style="stroke:#000000;stroke-width:1;"/></g><text fill="#000000" font-family="sans-serif" font-size="14" lengthAdjust="spacing" textLength="96.1201" x="1110.22" y="64.1451">id : uuid &#171;PK&#187;</text><text fill="#000000" font-family="sans-serif" font-size="14" lengthAdjust="spacing" textLength="81.1973" x="1110.22" y="80.442">name : text</text><text fill="#000000" font-family="sans-serif" font-size="14" lengthAdjust="spacing" textLength="153.7676" x="1110.22" y="96.7389">day_of_week : integer</text><line style="stroke:#181818;stroke-width:0.5;" x1="1091.22" x2="1272.7044" y1="104.0406" y2="104.0406"/></g><!--class experience_add_ons--><g class="entity" data-qualified-name="experience_add_ons" data-source-line="21" id="ent0004"><rect fill="#F1F1F1" height="113.1875" rx="2.5" ry="2.5" style="stroke:#181818;stroke-width:0.5;" width="174.9258" x="195.5" y="7"/><ellipse cx="210.5" cy="23" fill="#ADD1B2" rx="11" ry="11" style="stroke:#181818;stroke-width:1;"/><path d="M214.6094,29 L206.8906,29 L206.8906,16.6094 L214.6094,16.6094 L214.6094,18.7656 L209.3438,18.7656 L209.3438,21.4375 L214.1094,21.4375 L214.1094,23.5938 L209.3438,23.5938 L209.3438,26.8438 L214.6094,26.8438 L214.6094,29 Z " fill="#000000"/><text fill="#000000" font-family="sans-serif" font-size="14" lengthAdjust="spacing" textLength="142.9258" x="224.5" y="27.8467">experience_add_ons</text><line style="stroke:#181818;stroke-width:0.5;" x1="196.5" x2="369.4258" y1="39" y2="39"/><g data-visibility-modifier="IE_MANDATORY"><ellipse cx="206.5" cy="52.6484" fill="#000000" rx="3" ry="3" style="stroke:#000000;stroke-width:1;"/></g><text fill="#000000" font-family="sans-serif" font-size="14" lengthAdjust="spacing" textLength="96.1201" x="215.5" y="55.9951">id : uuid &#171;PK&#187;</text><text fill="#000000" font-family="sans-serif" font-size="14" lengthAdjust="spacing" textLength="81.1973" x="215.5" y="72.292">name : text</text><text fill="#000000" font-family="sans-serif" font-size="14" lengthAdjust="spacing" textLength="119.335" x="215.5" y="88.5889">description : text</text><text fill="#000000" font-family="sans-serif" font-size="14" lengthAdjust="spacing" textLength="98.5811" x="215.5" y="104.8857">price : integer</text><line style="stroke:#181818;stroke-width:0.5;" x1="196.5" x2="369.4258" y1="112.1875" y2="112.1875"/></g><!--class experience_package_add_ons--><g class="entity" data-qualified-name="experience_package_add_ons" data-source-line="28" id="ent0005"><rect fill="#F1F1F1" height="113.1875" rx="2.5" ry="2.5" style="stroke:#181818;stroke-width:0.5;" width="551.9229" x="7" y="246.08"/><ellipse cx="174.0737" cy="262.08" fill="#ADD1B2" rx="11" ry="11" style="stroke:#181818;stroke-width:1;"/><path d="M178.1831,268.08 L170.4644,268.08 L170.4644,255.6894 L178.1831,255.6894 L178.1831,257.8456 L172.9175,257.8456 L172.9175,260.5175 L177.6831,260.5175 L177.6831,262.6738 L172.9175,262.6738 L172.9175,265.9238 L178.1831,265.9238 L178.1831,268.08 Z " fill="#000000"/><text fill="#000000" font-family="sans-serif" font-size="14" lengthAdjust="spacing" textLength="209.2754" x="194.5737" y="266.9267">experience_package_add_ons</text><line style="stroke:#181818;stroke-width:0.5;" x1="8" x2="557.9229" y1="278.08" y2="278.08"/><g data-visibility-modifier="IE_MANDATORY"><ellipse cx="18" cy="291.7284" fill="#000000" rx="3" ry="3" style="stroke:#000000;stroke-width:1;"/></g><text fill="#000000" font-family="sans-serif" font-size="14" lengthAdjust="spacing" textLength="247.3105" x="27" y="295.0751">experience_package_id : uuid &#171;PK&#187;</text><g data-visibility-modifier="IE_MANDATORY"><ellipse cx="18" cy="308.0253" fill="#000000" rx="3" ry="3" style="stroke:#000000;stroke-width:1;"/></g><text fill="#000000" font-family="sans-serif" font-size="14" lengthAdjust="spacing" textLength="238.752" x="27" y="311.372">experience_add_on_id : uuid &#171;PK&#187;</text><line style="stroke:#181818;stroke-width:1;" x1="8" x2="557.9229" y1="318.6738" y2="318.6738"/><text fill="#000000" font-family="sans-serif" font-size="14" lengthAdjust="spacing" textLength="539.9229" x="13" y="335.6689">-- FK experience_package_id -&gt; experience_packages.id (onDelete: cascade)</text><text fill="#000000" font-family="sans-serif" font-size="14" lengthAdjust="spacing" textLength="522.8057" x="13" y="351.9657">-- FK experience_add_on_id -&gt; experience_add_ons.id (onDelete: cascade)</text></g><!--class experience_package_exception_rules--><g class="entity" data-qualified-name="experience_package_exception_rules" data-source-line="36" id="ent0006"><rect fill="#F1F1F1" height="145.7813" rx="2.5" ry="2.5" style="stroke:#181818;stroke-width:0.5;" width="406.5977" x="593.66" y="229.78"/><ellipse cx="661.9442" cy="245.78" fill="#ADD1B2" rx="11" ry="11" style="stroke:#181818;stroke-width:1;"/><path d="M666.0536,251.78 L658.3348,251.78 L658.3348,239.3894 L666.0536,239.3894 L666.0536,241.5456 L660.7879,241.5456 L660.7879,244.2175 L665.5536,244.2175 L665.5536,246.3737 L660.7879,246.3737 L660.7879,249.6237 L666.0536,249.6237 L666.0536,251.78 Z " fill="#000000"/><text fill="#000000" font-family="sans-serif" font-size="14" lengthAdjust="spacing" textLength="261.5293" x="682.4442" y="250.6267">experience_package_exception_rules</text><line style="stroke:#181818;stroke-width:0.5;" x1="594.66" x2="999.2577" y1="261.78" y2="261.78"/><g data-visibility-modifier="IE_MANDATORY"><ellipse cx="604.66" cy="275.4284" fill="#000000" rx="3" ry="3" style="stroke:#000000;stroke-width:1;"/></g><text fill="#000000" font-family="sans-serif" font-size="14" lengthAdjust="spacing" textLength="96.1201" x="613.66" y="278.7751">id : uuid &#171;PK&#187;</text><text fill="#000000" font-family="sans-serif" font-size="14" lengthAdjust="spacing" textLength="208.1064" x="613.66" y="295.072">experience_package_id : uuid</text><text fill="#000000" font-family="sans-serif" font-size="14" lengthAdjust="spacing" textLength="81.1973" x="613.66" y="311.3689">name : text</text><text fill="#000000" font-family="sans-serif" font-size="14" lengthAdjust="spacing" textLength="173.4551" x="613.66" y="327.6657">week_of_month : integer</text><text fill="#000000" font-family="sans-serif" font-size="14" lengthAdjust="spacing" textLength="153.7676" x="613.66" y="343.9626">day_of_week : integer</text><line style="stroke:#181818;stroke-width:1;" x1="594.66" x2="999.2577" y1="351.2644" y2="351.2644"/><text fill="#000000" font-family="sans-serif" font-size="14" lengthAdjust="spacing" textLength="394.5977" x="599.66" y="368.2595">-- FK experience_package_id -&gt; experience_packages.id</text></g><!--class experience_package_exception_time_slots--><g class="entity" data-qualified-name="experience_package_exception_time_slots" data-source-line="46" id="ent0007"><rect fill="#F1F1F1" height="129.4844" rx="2.5" ry="2.5" style="stroke:#181818;stroke-width:0.5;" width="475.4971" x="559.21" y="485.16"/><ellipse cx="643.5757" cy="501.16" fill="#ADD1B2" rx="11" ry="11" style="stroke:#181818;stroke-width:1;"/><path d="M647.6851,507.16 L639.9663,507.16 L639.9663,494.7694 L647.6851,494.7694 L647.6851,496.9256 L642.4195,496.9256 L642.4195,499.5975 L647.1851,499.5975 L647.1851,501.7537 L642.4195,501.7537 L642.4195,505.0037 L647.6851,505.0037 L647.6851,507.16 Z " fill="#000000"/><text fill="#000000" font-family="sans-serif" font-size="14" lengthAdjust="spacing" textLength="298.2656" x="664.0757" y="506.0067">experience_package_exception_time_slots</text><line style="stroke:#181818;stroke-width:0.5;" x1="560.21" x2="1033.7071" y1="517.16" y2="517.16"/><g data-visibility-modifier="IE_MANDATORY"><ellipse cx="570.21" cy="530.8084" fill="#000000" rx="3" ry="3" style="stroke:#000000;stroke-width:1;"/></g><text fill="#000000" font-family="sans-serif" font-size="14" lengthAdjust="spacing" textLength="96.1201" x="579.21" y="534.1551">id : uuid &#171;PK&#187;</text><text fill="#000000" font-family="sans-serif" font-size="14" lengthAdjust="spacing" textLength="166.9609" x="579.21" y="550.452">exception_rule_id : uuid</text><text fill="#000000" font-family="sans-serif" font-size="14" lengthAdjust="spacing" textLength="76.877" x="579.21" y="566.7489">time : time</text><text fill="#000000" font-family="sans-serif" font-size="14" lengthAdjust="spacing" textLength="122.8418" x="579.21" y="583.0457">capacity : integer</text><line style="stroke:#181818;stroke-width:1;" x1="560.21" x2="1033.7071" y1="590.3475" y2="590.3475"/><text fill="#000000" font-family="sans-serif" font-size="14" lengthAdjust="spacing" textLength="463.4971" x="565.21" y="607.3426">-- FK exception_rule_id -&gt; experience_package_exception_rules.id</text></g><!--class experience_package_time_slots--><g class="entity" data-qualified-name="experience_package_time_slots" data-source-line="55" id="ent0008"><rect fill="#F1F1F1" height="129.4844" rx="2.5" ry="2.5" style="stroke:#181818;stroke-width:0.5;" width="551.9229" x="1035" y="237.93"/><ellipse cx="1195.5352" cy="253.93" fill="#ADD1B2" rx="11" ry="11" style="stroke:#181818;stroke-width:1;"/><path d="M1199.6445,259.93 L1191.9258,259.93 L1191.9258,247.5394 L1199.6445,247.5394 L1199.6445,249.6956 L1194.3789,249.6956 L1194.3789,252.3675 L1199.1445,252.3675 L1199.1445,254.5238 L1194.3789,254.5238 L1194.3789,257.7738 L1199.6445,257.7738 L1199.6445,259.93 Z " fill="#000000"/><text fill="#000000" font-family="sans-serif" font-size="14" lengthAdjust="spacing" textLength="222.3525" x="1216.0352" y="258.7767">experience_package_time_slots</text><line style="stroke:#181818;stroke-width:0.5;" x1="1036" x2="1585.9229" y1="269.93" y2="269.93"/><g data-visibility-modifier="IE_MANDATORY"><ellipse cx="1046" cy="283.5784" fill="#000000" rx="3" ry="3" style="stroke:#000000;stroke-width:1;"/></g><text fill="#000000" font-family="sans-serif" font-size="14" lengthAdjust="spacing" textLength="96.1201" x="1055" y="286.9251">id : uuid &#171;PK&#187;</text><text fill="#000000" font-family="sans-serif" font-size="14" lengthAdjust="spacing" textLength="208.1064" x="1055" y="303.222">experience_package_id : uuid</text><text fill="#000000" font-family="sans-serif" font-size="14" lengthAdjust="spacing" textLength="76.877" x="1055" y="319.5189">time : time</text><text fill="#000000" font-family="sans-serif" font-size="14" lengthAdjust="spacing" textLength="122.8418" x="1055" y="335.8157">capacity : integer</text><line style="stroke:#181818;stroke-width:1;" x1="1036" x2="1585.9229" y1="343.1175" y2="343.1175"/><text fill="#000000" font-family="sans-serif" font-size="14" lengthAdjust="spacing" textLength="539.9229" x="1041" y="360.1126">-- FK experience_package_id -&gt; experience_packages.id (onDelete: cascade)</text></g><!--link experience_packages to appointments--><g class="link" data-entity-1="ent0003" data-entity-2="ent0002" data-link-type="crowfoot" data-source-line="64" id="lnk9"><path codeLine="64" d="M1281.8794,91.7823 C1368.2194,116.1423 1492.58,153.6 1603.96,197.19 C1609.69,199.43 1598.8252,194.9224 1604.6552,197.3124" fill="none" id="experience_packages-appointments" style="stroke:#181818;stroke-width:1;"/><line style="stroke:#181818;stroke-width:1;" x1="1276.9436" x2="1279.1159" y1="94.5459" y2="86.8464"/><line style="stroke:#181818;stroke-width:1;" x1="1279.8308" x2="1282.0031" y1="95.3605" y2="87.6611"/><line style="stroke:#181818;stroke-width:1;" x1="1281.8794" x2="1274.18" y1="91.7823" y2="89.61"/><line style="stroke:#181818;stroke-width:1;" x1="1613.9079" x2="1623.5859" y1="201.1055" y2="198.5884"/><line style="stroke:#181818;stroke-width:1;" x1="1613.9079" x2="1619.0341" y1="201.1055" y2="209.6916"/><line style="stroke:#181818;stroke-width:1;" x1="1613.9079" x2="1621.31" y1="201.1055" y2="204.14"/><ellipse cx="1608.3562" cy="198.8296" fill="none" rx="4" ry="4" style="stroke:#181818;stroke-width:1;"/><text fill="#000000" font-family="sans-serif" font-size="13" lengthAdjust="spacing" textLength="152.2549" x="1513.96" y="163.2569">experience_package_id</text></g><!--link experience_packages to experience_package_time_slots--><g class="link" data-entity-1="ent0003" data-entity-2="ent0008" data-link-type="crowfoot" data-source-line="65" id="lnk10"><path codeLine="65" d="M1211.7333,119.3073 C1231.3033,155.2773 1245.9258,182.1496 1267.4058,221.6196" fill="none" id="experience_packages-experience_package_time_slots" style="stroke:#181818;stroke-width:1;"/><line style="stroke:#181818;stroke-width:1;" x1="1206.308" x2="1213.3353" y1="117.7053" y2="113.882"/><line style="stroke:#181818;stroke-width:1;" x1="1207.7417" x2="1214.769" y1="120.3405" y2="116.5172"/><line style="stroke:#181818;stroke-width:1;" x1="1211.7333" x2="1207.91" y1="119.3073" y2="112.28"/><line style="stroke:#181818;stroke-width:1;" x1="1272.1859" x2="1281.2801" y1="230.4032" y2="234.5619"/><line style="stroke:#181818;stroke-width:1;" x1="1272.1859" x2="1270.7399" y1="230.4032" y2="240.2981"/><line style="stroke:#181818;stroke-width:1;" x1="1272.1859" x2="1276.01" y1="230.4032" y2="237.43"/><ellipse cx="1269.3179" cy="225.133" fill="none" rx="4" ry="4" style="stroke:#181818;stroke-width:1;"/><text fill="#000000" font-family="sans-serif" font-size="13" lengthAdjust="spacing" textLength="152.2549" x="1235.96" y="163.2569">experience_package_id</text></g><!--link experience_packages to experience_package_exception_rules--><g class="link" data-entity-1="ent0003" data-entity-2="ent0006" data-link-type="crowfoot" data-source-line="66" id="lnk11"><path codeLine="66" d="M1097.6985,116.4757 C1043.2485,150.0157 991.5269,181.8614 929.8369,219.8514" fill="none" id="experience_packages-experience_package_exception_rules" style="stroke:#181818;stroke-width:1;"/><line style="stroke:#181818;stroke-width:1;" x1="1099.0064" x2="1103.2021" y1="110.9721" y2="117.7836"/><line style="stroke:#181818;stroke-width:1;" x1="1096.4521" x2="1100.6478" y1="112.5455" y2="119.357"/><line style="stroke:#181818;stroke-width:1;" x1="1097.6985" x2="1104.51" y1="116.4757" y2="112.28"/><line style="stroke:#181818;stroke-width:1;" x1="921.3219" x2="917.6562" y1="225.0951" y2="234.399"/><line style="stroke:#181818;stroke-width:1;" x1="921.3219" x2="911.3638" y1="225.0951" y2="224.181"/><line style="stroke:#181818;stroke-width:1;" x1="921.3219" x2="914.51" y1="225.0951" y2="229.29"/><ellipse cx="926.4309" cy="221.9489" fill="none" rx="4" ry="4" style="stroke:#181818;stroke-width:1;"/><text fill="#000000" font-family="sans-serif" font-size="13" lengthAdjust="spacing" textLength="152.2549" x="1036.96" y="163.2569">experience_package_id</text></g><!--link experience_package_exception_rules to experience_package_exception_time_slots--><g class="link" data-entity-1="ent0006" data-entity-2="ent0007" data-link-type="crowfoot" data-source-line="67" id="lnk12"><path codeLine="67" d="M796.96,383.92 C796.96,418.39 796.96,433.29 796.96,466.67" fill="none" id="experience_package_exception_rules-experience_package_exception_time_slots" style="stroke:#181818;stroke-width:1;"/><line style="stroke:#181818;stroke-width:1;" x1="792.96" x2="800.96" y1="379.92" y2="379.92"/><line style="stroke:#181818;stroke-width:1;" x1="792.96" x2="800.96" y1="382.92" y2="382.92"/><line style="stroke:#181818;stroke-width:1;" x1="796.96" x2="796.96" y1="383.92" y2="375.92"/><line style="stroke:#181818;stroke-width:1;" x1="796.96" x2="802.96" y1="476.67" y2="484.67"/><line style="stroke:#181818;stroke-width:1;" x1="796.96" x2="790.96" y1="476.67" y2="484.67"/><line style="stroke:#181818;stroke-width:1;" x1="796.96" x2="796.96" y1="476.67" y2="484.67"/><ellipse cx="796.96" cy="470.67" fill="none" rx="4" ry="4" style="stroke:#181818;stroke-width:1;"/><text fill="#000000" font-family="sans-serif" font-size="13" lengthAdjust="spacing" textLength="114.0483" x="797.96" y="451.2269">exception_rule_id</text></g><!--link experience_add_ons to experience_package_add_ons--><g class="link" data-entity-1="ent0004" data-entity-2="ent0005" data-link-type="crowfoot" data-source-line="69" id="lnk13"><path codeLine="69" d="M282.96,128.48 C282.96,166.26 282.96,189.96 282.96,227.75" fill="none" id="experience_add_ons-experience_package_add_ons" style="stroke:#181818;stroke-width:1;"/><line style="stroke:#181818;stroke-width:1;" x1="278.96" x2="286.96" y1="124.48" y2="124.48"/><line style="stroke:#181818;stroke-width:1;" x1="278.96" x2="286.96" y1="127.48" y2="127.48"/><line style="stroke:#181818;stroke-width:1;" x1="282.96" x2="282.96" y1="128.48" y2="120.48"/><line style="stroke:#181818;stroke-width:1;" x1="282.96" x2="288.96" y1="237.75" y2="245.75"/><line style="stroke:#181818;stroke-width:1;" x1="282.96" x2="276.96" y1="237.75" y2="245.75"/><line style="stroke:#181818;stroke-width:1;" x1="282.96" x2="282.96" y1="237.75" y2="245.75"/><ellipse cx="282.96" cy="231.75" fill="none" rx="4" ry="4" style="stroke:#181818;stroke-width:1;"/><text fill="#000000" font-family="sans-serif" font-size="13" lengthAdjust="spacing" textLength="144.3076" x="283.96" y="163.2569">experience_add_on_id</text></g><!--link experience_packages to experience_package_add_ons--><g class="link" data-entity-1="ent0003" data-entity-2="ent0005" data-link-type="crowfoot" data-source-line="70" id="lnk14"><path codeLine="70" d="M1082.0734,82.405 C962.5334,104.515 755.72,145.7 575.96,197.19 C527.42,211.09 492.1803,222.6674 445.5103,239.5174" fill="none" id="experience_packages-experience_package_add_ons" style="stroke:#181818;stroke-width:1;"/><line style="stroke:#181818;stroke-width:1;" x1="1085.2792" x2="1086.7342" y1="77.7442" y2="85.6108"/><line style="stroke:#181818;stroke-width:1;" x1="1082.3293" x2="1083.7842" y1="78.2898" y2="86.1564"/><line style="stroke:#181818;stroke-width:1;" x1="1082.0734" x2="1089.94" y1="82.405" y2="80.95"/><line style="stroke:#181818;stroke-width:1;" x1="436.1046" x2="430.6175" y1="242.9133" y2="251.2734"/><line style="stroke:#181818;stroke-width:1;" x1="436.1046" x2="426.5425" y1="242.9133" y2="239.9866"/><line style="stroke:#181818;stroke-width:1;" x1="436.1046" x2="428.58" y1="242.9133" y2="245.63"/><ellipse cx="441.748" cy="240.8757" fill="none" rx="4" ry="4" style="stroke:#181818;stroke-width:1;"/><text fill="#000000" font-family="sans-serif" font-size="13" lengthAdjust="spacing" textLength="152.2549" x="758.96" y="163.2569">experience_package_id</text></g><?plantuml-src jLLBRiCW4Dtd52Yhjf9p02lAgkecczu08PWcA3OWm4gYf7Sl94vj2DXEFniZPeOtyzuC68JbzeZcH2d9XQr1M3D7nA2-0Prc2BrmXahKD6vPBj_NgvMtmK61vY0eO4NeZcm0VuSvVmy4CsB1UVpYF9RNVkSNjzljgT_0mReDROoLDMWio3KcCaDDU9MmgwqK_NWDBXN3nBPvZ2MrSewYk7pGsngboozM2OTPE4QVincqWYKYBhebx5dvGeAC7B7ym7k0dJCwsM03EfEIC8QbkClOcgSc14CrLvPBqHcLvXH6yz_KojGHkQ_r3CrAUgIknrDHF-yXUfBY5IgmK29A32KCdbDONUuGggMKGngM2muKBdfZtLJPWOd3ikqSkNrXj_rS-VcgfR3RNeDpW_T_5wN7pzzBR2ff9sZHnGu8qXSk42DyS2Xn-BwyBDyOACarxjGuzN72asWEzlrHgh-_Fvvpujqxduj2di9VIPbEE7H-MAI_0Oolt7JKkwDJaaJrHyCMg7bxG_EmjuWo-NuzA4GIh1FW2m00?></g></svg>