<svg xmlns="http://www.w3.org/2000/svg" xmlns:xlink="http://www.w3.org/1999/xlink" contentStyleType="text/css" data-diagram-type="CLASS" height="563px" preserveAspectRatio="none" style="width:1237px;height:563px;background:#FFFFFF;" version="1.1" viewBox="0 0 1237 563" width="1237px" zoomAndPan="magnify"><?plantuml 1.2026.3beta6?><defs/><g><!--class experience_packages--><g class="entity" data-qualified-name="experience_packages" data-source-line="3" id="ent0002"><rect fill="#F1F1F1" height="96.8906" rx="2.5" ry="2.5" style="stroke:#181818;stroke-width:0.5;" width="183.4844" x="494.72" y="15.15"/><ellipse cx="509.72" cy="31.15" fill="#ADD1B2" rx="11" ry="11" style="stroke:#181818;stroke-width:1;"/><path d="M513.8294,37.15 L506.1106,37.15 L506.1106,24.7594 L513.8294,24.7594 L513.8294,26.9156 L508.5638,26.9156 L508.5638,29.5875 L513.3294,29.5875 L513.3294,31.7437 L508.5638,31.7437 L508.5638,34.9937 L513.8294,34.9937 L513.8294,37.15 Z " fill="#000000"/><text fill="#000000" font-family="sans-serif" font-size="14" lengthAdjust="spacing" textLength="151.4844" x="523.72" y="35.9967">experience_packages</text><line style="stroke:#181818;stroke-width:0.5;" x1="495.72" x2="677.2044" y1="47.15" y2="47.15"/><g data-visibility-modifier="IE_MANDATORY"><ellipse cx="505.72" cy="60.7984" fill="#000000" rx="3" ry="3" style="stroke:#000000;stroke-width:1;"/></g><text fill="#000000" font-family="sans-serif" font-size="14" lengthAdjust="spacing" textLength="56.916" x="514.72" y="64.1451">id : uuid</text><line style="stroke:#181818;stroke-width:1;" x1="495.72" x2="677.2044" y1="71.4469" y2="71.4469"/><text fill="#000000" font-family="sans-serif" font-size="14" lengthAdjust="spacing" textLength="81.1973" x="500.72" y="88.442">name : text</text><text fill="#000000" font-family="sans-serif" font-size="14" lengthAdjust="spacing" textLength="153.7676" x="500.72" y="104.7389">day_of_week : integer</text></g><!--class appointments--><g class="entity" data-qualified-name="appointments" data-source-line="10" id="ent0003"><rect fill="#F1F1F1" height="194.6719" rx="2.5" ry="2.5" style="stroke:#181818;stroke-width:0.5;" width="258.9209" x="7" y="180.19"/><ellipse cx="83.6719" cy="196.19" fill="#ADD1B2" rx="11" ry="11" style="stroke:#181818;stroke-width:1;"/><path d="M87.7813,202.19 L80.0625,202.19 L80.0625,189.7994 L87.7813,189.7994 L87.7813,191.9556 L82.5156,191.9556 L82.5156,194.6275 L87.2813,194.6275 L87.2813,196.7837 L82.5156,196.7837 L82.5156,200.0337 L87.7813,200.0337 L87.7813,202.19 Z " fill="#000000"/><text fill="#000000" font-family="sans-serif" font-size="14" lengthAdjust="spacing" textLength="97.0771" x="104.1719" y="201.0367">appointments</text><line style="stroke:#181818;stroke-width:0.5;" x1="8" x2="264.9209" y1="212.19" y2="212.19"/><g data-visibility-modifier="IE_MANDATORY"><ellipse cx="18" cy="225.8384" fill="#000000" rx="3" ry="3" style="stroke:#000000;stroke-width:1;"/></g><text fill="#000000" font-family="sans-serif" font-size="14" lengthAdjust="spacing" textLength="56.916" x="27" y="229.1851">id : uuid</text><line style="stroke:#181818;stroke-width:1;" x1="8" x2="264.9209" y1="236.4869" y2="236.4869"/><text fill="#000000" font-family="sans-serif" font-size="14" lengthAdjust="spacing" textLength="246.9209" x="13" y="253.482">experience_package_id : uuid &#171;FK&#187;</text><text fill="#000000" font-family="sans-serif" font-size="14" lengthAdjust="spacing" textLength="173.5371" x="13" y="269.7789">appointment_date : date</text><text fill="#000000" font-family="sans-serif" font-size="14" lengthAdjust="spacing" textLength="76.877" x="13" y="286.0757">time : time</text><text fill="#000000" font-family="sans-serif" font-size="14" lengthAdjust="spacing" textLength="68.749" x="13" y="302.3726">kwc : text</text><text fill="#000000" font-family="sans-serif" font-size="14" lengthAdjust="spacing" textLength="154.123" x="13" y="318.6695">customer_name : text</text><text fill="#000000" font-family="sans-serif" font-size="14" lengthAdjust="spacing" textLength="153.0293" x="13" y="334.9664">customer_email : text</text><text fill="#000000" font-family="sans-serif" font-size="14" lengthAdjust="spacing" textLength="158.2314" x="13" y="351.2632">customer_phone : text</text><text fill="#000000" font-family="sans-serif" font-size="14" lengthAdjust="spacing" textLength="163.8369" x="13" y="367.5601">created_at : timestamp</text></g><!--class experience_add_ons--><g class="entity" data-qualified-name="experience_add_ons" data-source-line="23" id="ent0004"><rect fill="#F1F1F1" height="113.1875" rx="2.5" ry="2.5" style="stroke:#181818;stroke-width:0.5;" width="174.9258" x="985" y="7"/><ellipse cx="1000" cy="23" fill="#ADD1B2" rx="11" ry="11" style="stroke:#181818;stroke-width:1;"/><path d="M1004.1094,29 L996.3906,29 L996.3906,16.6094 L1004.1094,16.6094 L1004.1094,18.7656 L998.8438,18.7656 L998.8438,21.4375 L1003.6094,21.4375 L1003.6094,23.5938 L998.8438,23.5938 L998.8438,26.8438 L1004.1094,26.8438 L1004.1094,29 Z " fill="#000000"/><text fill="#000000" font-family="sans-serif" font-size="14" lengthAdjust="spacing" textLength="142.9258" x="1014" y="27.8467">experience_add_ons</text><line style="stroke:#181818;stroke-width:0.5;" x1="986" x2="1158.9258" y1="39" y2="39"/><g data-visibility-modifier="IE_MANDATORY"><ellipse cx="996" cy="52.6484" fill="#000000" rx="3" ry="3" style="stroke:#000000;stroke-width:1;"/></g><text fill="#000000" font-family="sans-serif" font-size="14" lengthAdjust="spacing" textLength="56.916" x="1005" y="55.9951">id : uuid</text><line style="stroke:#181818;stroke-width:1;" x1="986" x2="1158.9258" y1="63.2969" y2="63.2969"/><text fill="#000000" font-family="sans-serif" font-size="14" lengthAdjust="spacing" textLength="81.1973" x="991" y="80.292">name : text</text><text fill="#000000" font-family="sans-serif" font-size="14" lengthAdjust="spacing" textLength="119.335" x="991" y="96.5889">description : text</text><text fill="#000000" font-family="sans-serif" font-size="14" lengthAdjust="spacing" textLength="98.5811" x="991" y="112.8857">price : integer</text></g><!--class experience_package_time_slots--><g class="entity" data-qualified-name="experience_package_time_slots" data-source-line="31" id="ent0005"><rect fill="#F1F1F1" height="113.1875" rx="2.5" ry="2.5" style="stroke:#181818;stroke-width:0.5;" width="258.9209" x="301" y="220.93"/><ellipse cx="318.0558" cy="236.93" fill="#ADD1B2" rx="11" ry="11" style="stroke:#181818;stroke-width:1;"/><path d="M322.1651,242.93 L314.4464,242.93 L314.4464,230.5394 L322.1651,230.5394 L322.1651,232.6956 L316.8995,232.6956 L316.8995,235.3675 L321.6651,235.3675 L321.6651,237.5237 L316.8995,237.5237 L316.8995,240.7737 L322.1651,240.7737 L322.1651,242.93 Z " fill="#000000"/><text fill="#000000" font-family="sans-serif" font-size="14" lengthAdjust="spacing" textLength="222.3525" x="332.5126" y="241.7767">experience_package_time_slots</text><line style="stroke:#181818;stroke-width:0.5;" x1="302" x2="558.9209" y1="252.93" y2="252.93"/><g data-visibility-modifier="IE_MANDATORY"><ellipse cx="312" cy="266.5784" fill="#000000" rx="3" ry="3" style="stroke:#000000;stroke-width:1;"/></g><text fill="#000000" font-family="sans-serif" font-size="14" lengthAdjust="spacing" textLength="56.916" x="321" y="269.9251">id : uuid</text><line style="stroke:#181818;stroke-width:1;" x1="302" x2="558.9209" y1="277.2269" y2="277.2269"/><text fill="#000000" font-family="sans-serif" font-size="14" lengthAdjust="spacing" textLength="246.9209" x="307" y="294.222">experience_package_id : uuid &#171;FK&#187;</text><text fill="#000000" font-family="sans-serif" font-size="14" lengthAdjust="spacing" textLength="76.877" x="307" y="310.5189">time : time</text><text fill="#000000" font-family="sans-serif" font-size="14" lengthAdjust="spacing" textLength="122.8418" x="307" y="326.8157">capacity : integer</text></g><!--class experience_package_exception_rules--><g class="entity" data-qualified-name="experience_package_exception_rules" data-source-line="39" id="ent0006"><rect fill="#F1F1F1" height="129.4844" rx="2.5" ry="2.5" style="stroke:#181818;stroke-width:0.5;" width="293.5293" x="594.7" y="212.78"/><ellipse cx="609.7" cy="228.78" fill="#ADD1B2" rx="11" ry="11" style="stroke:#181818;stroke-width:1;"/><path d="M613.8094,234.78 L606.0906,234.78 L606.0906,222.3894 L613.8094,222.3894 L613.8094,224.5456 L608.5438,224.5456 L608.5438,227.2175 L613.3094,227.2175 L613.3094,229.3737 L608.5438,229.3737 L608.5438,232.6237 L613.8094,232.6237 L613.8094,234.78 Z " fill="#000000"/><text fill="#000000" font-family="sans-serif" font-size="14" lengthAdjust="spacing" textLength="261.5293" x="623.7" y="233.6267">experience_package_exception_rules</text><line style="stroke:#181818;stroke-width:0.5;" x1="595.7" x2="887.2293" y1="244.78" y2="244.78"/><g data-visibility-modifier="IE_MANDATORY"><ellipse cx="605.7" cy="258.4284" fill="#000000" rx="3" ry="3" style="stroke:#000000;stroke-width:1;"/></g><text fill="#000000" font-family="sans-serif" font-size="14" lengthAdjust="spacing" textLength="56.916" x="614.7" y="261.7751">id : uuid</text><line style="stroke:#181818;stroke-width:1;" x1="595.7" x2="887.2293" y1="269.0769" y2="269.0769"/><text fill="#000000" font-family="sans-serif" font-size="14" lengthAdjust="spacing" textLength="246.9209" x="600.7" y="286.072">experience_package_id : uuid &#171;FK&#187;</text><text fill="#000000" font-family="sans-serif" font-size="14" lengthAdjust="spacing" textLength="81.1973" x="600.7" y="302.3689">name : text</text><text fill="#000000" font-family="sans-serif" font-size="14" lengthAdjust="spacing" textLength="173.4551" x="600.7" y="318.6657">week_of_month : integer</text><text fill="#000000" font-family="sans-serif" font-size="14" lengthAdjust="spacing" textLength="153.7676" x="600.7" y="334.9626">day_of_week : integer</text></g><!--class experience_package_exception_time_slots--><g class="entity" data-qualified-name="experience_package_exception_time_slots" data-source-line="48" id="ent0007"><rect fill="#F1F1F1" height="113.1875" rx="2.5" ry="2.5" style="stroke:#181818;stroke-width:0.5;" width="330.2656" x="576.33" y="434.86"/><ellipse cx="591.33" cy="450.86" fill="#ADD1B2" rx="11" ry="11" style="stroke:#181818;stroke-width:1;"/><path d="M595.4394,456.86 L587.7206,456.86 L587.7206,444.4694 L595.4394,444.4694 L595.4394,446.6256 L590.1738,446.6256 L590.1738,449.2975 L594.9394,449.2975 L594.9394,451.4537 L590.1738,451.4537 L590.1738,454.7037 L595.4394,454.7037 L595.4394,456.86 Z " fill="#000000"/><text fill="#000000" font-family="sans-serif" font-size="14" lengthAdjust="spacing" textLength="298.2656" x="605.33" y="455.7067">experience_package_exception_time_slots</text><line style="stroke:#181818;stroke-width:0.5;" x1="577.33" x2="905.5956" y1="466.86" y2="466.86"/><g data-visibility-modifier="IE_MANDATORY"><ellipse cx="587.33" cy="480.5084" fill="#000000" rx="3" ry="3" style="stroke:#000000;stroke-width:1;"/></g><text fill="#000000" font-family="sans-serif" font-size="14" lengthAdjust="spacing" textLength="56.916" x="596.33" y="483.8551">id : uuid</text><line style="stroke:#181818;stroke-width:1;" x1="577.33" x2="905.5956" y1="491.1569" y2="491.1569"/><text fill="#000000" font-family="sans-serif" font-size="14" lengthAdjust="spacing" textLength="205.7754" x="582.33" y="508.152">exception_rule_id : uuid &#171;FK&#187;</text><text fill="#000000" font-family="sans-serif" font-size="14" lengthAdjust="spacing" textLength="76.877" x="582.33" y="524.4489">time : time</text><text fill="#000000" font-family="sans-serif" font-size="14" lengthAdjust="spacing" textLength="122.8418" x="582.33" y="540.7457">capacity : integer</text></g><!--class experience_package_add_ons--><g class="entity" data-qualified-name="experience_package_add_ons" data-source-line="56" id="ent0008"><rect fill="#F1F1F1" height="80.5938" rx="2.5" ry="2.5" style="stroke:#181818;stroke-width:0.5;" width="299.4443" x="922.74" y="237.23"/><ellipse cx="963.916" cy="253.23" fill="#ADD1B2" rx="11" ry="11" style="stroke:#181818;stroke-width:1;"/><path d="M968.0254,259.23 L960.3067,259.23 L960.3067,246.8394 L968.0254,246.8394 L968.0254,248.9956 L962.7598,248.9956 L962.7598,251.6675 L967.5254,251.6675 L967.5254,253.8237 L962.7598,253.8237 L962.7598,257.0737 L968.0254,257.0737 L968.0254,259.23 Z " fill="#000000"/><text fill="#000000" font-family="sans-serif" font-size="14" lengthAdjust="spacing" textLength="209.2754" x="983.7329" y="258.0767">experience_package_add_ons</text><line style="stroke:#181818;stroke-width:0.5;" x1="923.74" x2="1221.1843" y1="269.23" y2="269.23"/><g data-visibility-modifier="IE_MANDATORY"><ellipse cx="933.74" cy="282.8784" fill="#000000" rx="3" ry="3" style="stroke:#000000;stroke-width:1;"/></g><text fill="#000000" font-family="sans-serif" font-size="14" lengthAdjust="spacing" textLength="273.4443" x="942.74" y="286.2251">experience_package_id : uuid &#171;PK, FK&#187;</text><g data-visibility-modifier="IE_MANDATORY"><ellipse cx="933.74" cy="299.1753" fill="#000000" rx="3" ry="3" style="stroke:#000000;stroke-width:1;"/></g><text fill="#000000" font-family="sans-serif" font-size="14" lengthAdjust="spacing" textLength="264.8857" x="942.74" y="302.522">experience_add_on_id : uuid &#171;PK, FK&#187;</text><line style="stroke:#181818;stroke-width:0.5;" x1="923.74" x2="1221.1843" y1="309.8237" y2="309.8237"/></g><!--link experience_packages to appointments--><g class="link" data-entity-1="ent0002" data-entity-2="ent0003" data-link-type="crowfoot" data-source-line="61" id="lnk9"><path codeLine="61" d="M516.45,120.53 C516.45,158.62 516.45,197.05 516.45,197.05 C516.45,197.05 394.25,197.05 284.17,197.05" fill="none" id="experience_packages-appointments" style="stroke:#181818;stroke-width:1;"/><line style="stroke:#181818;stroke-width:1;" x1="512.45" x2="520.45" y1="116.53" y2="116.53"/><line style="stroke:#181818;stroke-width:1;" x1="512.45" x2="520.45" y1="119.53" y2="119.53"/><line style="stroke:#181818;stroke-width:1;" x1="516.45" x2="516.45" y1="120.53" y2="112.53"/><line style="stroke:#181818;stroke-width:1;" x1="274.17" x2="266.17" y1="197.05" y2="203.05"/><line style="stroke:#181818;stroke-width:1;" x1="274.17" x2="266.17" y1="197.05" y2="191.05"/><line style="stroke:#181818;stroke-width:1;" x1="274.17" x2="266.17" y1="197.05" y2="197.05"/><ellipse cx="280.17" cy="197.05" fill="none" rx="4" ry="4" style="stroke:#181818;stroke-width:1;"/><text fill="#000000" font-family="sans-serif" font-size="13" lengthAdjust="spacing" textLength="152.2549" x="280.57" y="193.1169">experience_package_id</text></g><!--link experience_packages to experience_package_time_slots--><g class="link" data-entity-1="ent0002" data-entity-2="ent0005" data-link-type="crowfoot" data-source-line="62" id="lnk10"><path codeLine="62" d="M538.19,120.41 C538.19,152.59 538.19,168.87 538.19,202.59" fill="none" id="experience_packages-experience_package_time_slots" style="stroke:#181818;stroke-width:1;"/><line style="stroke:#181818;stroke-width:1;" x1="534.19" x2="542.19" y1="116.41" y2="116.41"/><line style="stroke:#181818;stroke-width:1;" x1="534.19" x2="542.19" y1="119.41" y2="119.41"/><line style="stroke:#181818;stroke-width:1;" x1="538.19" x2="538.19" y1="120.41" y2="112.41"/><line style="stroke:#181818;stroke-width:1;" x1="538.19" x2="544.19" y1="212.59" y2="220.59"/><line style="stroke:#181818;stroke-width:1;" x1="538.19" x2="532.19" y1="212.59" y2="220.59"/><line style="stroke:#181818;stroke-width:1;" x1="538.19" x2="538.19" y1="212.59" y2="220.59"/><ellipse cx="538.19" cy="206.59" fill="none" rx="4" ry="4" style="stroke:#181818;stroke-width:1;"/><text fill="#000000" font-family="sans-serif" font-size="13" lengthAdjust="spacing" textLength="152.2549" x="385.19" y="162.5669">experience_package_id</text></g><!--link experience_packages to experience_package_exception_rules--><g class="link" data-entity-1="ent0002" data-entity-2="ent0006" data-link-type="crowfoot" data-source-line="63" id="lnk11"><path codeLine="63" d="M636.45,120.41 C636.45,150 636.45,162.14 636.45,194.3" fill="none" id="experience_packages-experience_package_exception_rules" style="stroke:#181818;stroke-width:1;"/><line style="stroke:#181818;stroke-width:1;" x1="632.45" x2="640.45" y1="116.41" y2="116.41"/><line style="stroke:#181818;stroke-width:1;" x1="632.45" x2="640.45" y1="119.41" y2="119.41"/><line style="stroke:#181818;stroke-width:1;" x1="636.45" x2="636.45" y1="120.41" y2="112.41"/><line style="stroke:#181818;stroke-width:1;" x1="636.45" x2="642.45" y1="204.3" y2="212.3"/><line style="stroke:#181818;stroke-width:1;" x1="636.45" x2="630.45" y1="204.3" y2="212.3"/><line style="stroke:#181818;stroke-width:1;" x1="636.45" x2="636.45" y1="204.3" y2="212.3"/><ellipse cx="636.45" cy="198.3" fill="none" rx="4" ry="4" style="stroke:#181818;stroke-width:1;"/><text fill="#000000" font-family="sans-serif" font-size="13" lengthAdjust="spacing" textLength="152.2549" x="637.45" y="158.4169">experience_package_id</text></g><!--link experience_package_exception_rules to experience_package_exception_time_slots--><g class="link" data-entity-1="ent0006" data-entity-2="ent0007" data-link-type="crowfoot" data-source-line="65" id="lnk12"><path codeLine="65" d="M741.46,350.58 C741.46,379.96 741.46,388.35 741.46,416.67" fill="none" id="experience_package_exception_rules-experience_package_exception_time_slots" style="stroke:#181818;stroke-width:1;"/><line style="stroke:#181818;stroke-width:1;" x1="737.46" x2="745.46" y1="346.58" y2="346.58"/><line style="stroke:#181818;stroke-width:1;" x1="737.46" x2="745.46" y1="349.58" y2="349.58"/><line style="stroke:#181818;stroke-width:1;" x1="741.46" x2="741.46" y1="350.58" y2="342.58"/><line style="stroke:#181818;stroke-width:1;" x1="741.46" x2="747.46" y1="426.67" y2="434.67"/><line style="stroke:#181818;stroke-width:1;" x1="741.46" x2="735.46" y1="426.67" y2="434.67"/><line style="stroke:#181818;stroke-width:1;" x1="741.46" x2="741.46" y1="426.67" y2="434.67"/><ellipse cx="741.46" cy="420.67" fill="none" rx="4" ry="4" style="stroke:#181818;stroke-width:1;"/><text fill="#000000" font-family="sans-serif" font-size="13" lengthAdjust="spacing" textLength="114.0483" x="626.46" y="384.6969">exception_rule_id</text></g><!--link experience_packages to experience_package_add_ons--><g class="link" data-entity-1="ent0002" data-entity-2="ent0008" data-link-type="crowfoot" data-source-line="67" id="lnk13"><path codeLine="67" d="M696.7,64.05 C805.53,64.05 953.87,64.05 953.87,64.05 C953.87,64.05 953.87,166.93 953.87,228.87" fill="none" id="experience_packages-experience_package_add_ons" style="stroke:#181818;stroke-width:1;"/><line style="stroke:#181818;stroke-width:1;" x1="686.7" x2="678.7" y1="64.05" y2="70.05"/><line style="stroke:#181818;stroke-width:1;" x1="686.7" x2="678.7" y1="64.05" y2="58.05"/><line style="stroke:#181818;stroke-width:1;" x1="686.7" x2="678.7" y1="64.05" y2="64.05"/><ellipse cx="692.7" cy="64.05" fill="none" rx="4" ry="4" style="stroke:#181818;stroke-width:1;"/><line style="stroke:#181818;stroke-width:1;" x1="957.87" x2="949.87" y1="232.87" y2="232.87"/><line style="stroke:#181818;stroke-width:1;" x1="957.87" x2="949.87" y1="229.87" y2="229.87"/><line style="stroke:#181818;stroke-width:1;" x1="953.87" x2="953.87" y1="228.87" y2="236.87"/><text fill="#000000" font-family="sans-serif" font-size="13" lengthAdjust="spacing" textLength="152.2549" x="749.69" y="60.1169">experience_package_id</text></g><!--link experience_add_ons to experience_package_add_ons--><g class="link" data-entity-1="ent0004" data-entity-2="ent0008" data-link-type="crowfoot" data-source-line="68" id="lnk14"><path codeLine="68" d="M1072.46,138.65 C1072.46,175.28 1072.46,195.99 1072.46,228.88" fill="none" id="experience_add_ons-experience_package_add_ons" style="stroke:#181818;stroke-width:1;"/><line style="stroke:#181818;stroke-width:1;" x1="1072.46" x2="1066.46" y1="128.65" y2="120.65"/><line style="stroke:#181818;stroke-width:1;" x1="1072.46" x2="1078.46" y1="128.65" y2="120.65"/><line style="stroke:#181818;stroke-width:1;" x1="1072.46" x2="1072.46" y1="128.65" y2="120.65"/><ellipse cx="1072.46" cy="134.65" fill="none" rx="4" ry="4" style="stroke:#181818;stroke-width:1;"/><line style="stroke:#181818;stroke-width:1;" x1="1076.46" x2="1068.46" y1="232.88" y2="232.88"/><line style="stroke:#181818;stroke-width:1;" x1="1076.46" x2="1068.46" y1="229.88" y2="229.88"/><line style="stroke:#181818;stroke-width:1;" x1="1072.46" x2="1072.46" y1="228.88" y2="236.88"/><text fill="#000000" font-family="sans-serif" font-size="13" lengthAdjust="spacing" textLength="144.3076" x="927.46" y="174.8269">experience_add_on_id</text></g><?plantuml-src jLJBRi8m4BpdAooEgFa1X3ZsmgL_O5ds5gp43zaR4KJuzzg5WXESa8hs4ilZYNTsTcHVIMsPOuhKKWCUBH3ZS6-A0ZHAF985j1QS1Cs1MiOhjWE_8CoJ34vE1I5BASYAD8qKOLEMuQEPWW0Xj1XsWXsf-QG7W2g0KYFim1NdUq5chGcm2ljBfHGOAV4eXjuuPBr-tsusWPLSH0N3A2ekuGJbHM9OmguwyBjUtdWq2Xpjjt63GJ5PPt2xDphbEmYb16LuhUEHAPlsdVJ0XA16F_XyXUVP39uxQL4QVGUjanpohcSSZ2gfhmsE3JnXl3INllkS1MhKD5Sdj1o-6wMkgKVJEQIzfBZlTSnopBGo6lU9x1bXdzJvV00vxcXZQVl_C8QHq0wEB-gUkFonVIDNKSk7_EUPKLlcHUgwiZId_XEooWzvwl_fxF_DXSDyZjrQpFXtJfL10uDqvEqycxBikgdnpl3YX_hBosxJ_m80?></g></svg>